<svg width="811.5125732421875px" height="138.8px" xmlns="http://www.w3.org/2000/svg" viewBox="-155.75628662109375 5.599999999999994 811.5125732421875 138.8" style="background: rgb(23, 32, 42);" preserveAspectRatio="xMidYMid"><defs><filter id="editing-vintage" x="-100%" y="-100%" width="300%" height="300%"><feConvolveMatrix in="SourceGraphic" result="extrude" order="9,9" divisor="1" kernelMatrix="1,0,0,0,0,0,0,0,0,0,1,0,0,0,0,0,0,0,0,0,1,0,0,0,0,0,0,0,0,0,1,0,0,0,0,0,0,0,0,0,1,0,0,0,0,0,0,0,0,0,1,0,0,0,0,0,0,0,0,0,1,0,0,0,0,0,0,0,0,0,1,0,0,0,0,0,0,0,0,0,1"> </feConvolveMatrix><feFlood flood-color="#f9ae5c" result="flood-extrude"></feFlood><feComposite operator="in" in="flood-extrude" in2="extrude" result="extrude-color"></feComposite><feOffset dx="5" dy="5" in="extrude-color" result="extrude-offset"></feOffset><feColorMatrix in="SourceGraphic" result="stroke" type="matrix" values="0 0 0 0 0 0 0 0 0 0 0 0 0 0 0 0 1 0 0 0 "></feColorMatrix><feColorMatrix in="SourceGraphic" result="fill" type="matrix" values="0 0 0 0 0 0 0 0 0 0 0 0 0 0 0 1 0 0 1 0 "></feColorMatrix><feConvolveMatrix in="stroke" result="inner-shadow" order="5,5" divisor="1" kernelMatrix="1 0 0 0 0 0 1 0 0 0 0 0 1 0 0 0 0 0 1 0 0 0 0 0 1 "></feConvolveMatrix><feOffset dx="1" dy="1" in="inner-shadow" result="offset"></feOffset><feComposite operator="in" in="offset" in2="SourceAlpha" result="comp"></feComposite><feFlood flood-color="#e4812f" result="flood3"></feFlood><feComposite operator="in" in="flood3" in2="comp" result="comp2"></feComposite><feColorMatrix in="comp2" result="comp3" type="matrix" values="1 0 0 0 0 0 1 0 0 0 0 0 1 0 0 0 0 0 0.5 0 "></feColorMatrix><feFlood flood-color="#17202a" result="flood1"></feFlood><feComposite operator="in" in="flood1" in2="fill" result="fill2"></feComposite><feFlood flood-color="#fff" result="flood2"></feFlood><feComposite operator="in" in="flood2" in2="stroke" result="stroke2"></feComposite><feMerge result="obj"><feMergeNode in="extrude-offset"></feMergeNode><feMergeNode in="fill2"></feMergeNode><feMergeNode in="comp3"></feMergeNode></feMerge><feConvolveMatrix in="SourceAlpha" result="shadow" order="9,9" divisor="1" kernelMatrix="1,0,0,0,0,0,0,0,0,0,1,0,0,0,0,0,0,0,0,0,1,0,0,0,0,0,0,0,0,0,1,0,0,0,0,0,0,0,0,0,1,0,0,0,0,0,0,0,0,0,1,0,0,0,0,0,0,0,0,0,1,0,0,0,0,0,0,0,0,0,1,0,0,0,0,0,0,0,0,0,1"></feConvolveMatrix><feOffset dx="15" dy="15" in="shadow" result="shadow-offset"></feOffset><feFlood flood-color="#17202a" result="flood-shadow"></feFlood><feComposite operator="in" in="flood-shadow" in2="shadow-offset" result="shadow-color"></feComposite><feMerge><feMergeNode in="shadow-color"></feMergeNode><feMergeNode in="obj"></feMergeNode></feMerge></filter></defs><g transform="translate(-9,-9)"><g filter="url(#editing-vintage)"><g transform="translate(-41.2649929523468, 107.00000190734863)"><path d="M71.87-49.79L71.87-39.30L68.67-39.30L68.67-10.50L71.87-10.50L71.87 0L47.68 0L47.68-10.50L50.75-10.50L50.75-32.90L39.87 0L30.40 0L19.20-32.58L19.20-10.50L22.27-10.50L22.27 0L1.28 0L1.28-10.50L4.48-10.50L4.48-39.30L1.28-39.30L1.28-49.79L30.59-49.79L37.25-29.82L43.65-49.79L71.87-49.79ZM93.38 0.90L93.38 0.90Q84.29 0.90 79.17-3.87L79.17-3.87L79.17-3.87Q74.05-8.64 74.05-17.79L74.05-17.79L74.05-17.79Q74.05-26.94 79.17-31.71L79.17-31.71L79.17-31.71Q84.29-36.48 93.38-36.48L93.38-36.48L93.38-36.48Q102.40-36.48 106.40-31.78L106.40-31.78L106.40-31.78Q110.40-27.07 110.40-20.10L110.40-20.10L110.40-15.49L89.66-15.49L89.66-15.10L89.66-15.10Q89.66-12.74 91.07-11.62L91.07-11.62L91.07-11.62Q92.48-10.50 95.74-10.50L95.74-10.50L95.74-10.50Q99.65-10.50 103.17-11.07L103.17-11.07L103.17-11.07Q106.69-11.65 109.31-12.54L109.31-12.54L109.31-2.30L109.31-2.30Q107.07-1.09 102.75-0.10L102.75-0.10L102.75-0.10Q98.43 0.90 93.38 0.90L93.38 0.90ZM89.66-22.53L97.09-22.53L97.09-23.30L97.09-23.30Q97.09-25.47 96.16-26.43L96.16-26.43L96.16-26.43Q95.23-27.39 93.38-27.39L93.38-27.39L93.38-27.39Q91.52-27.39 90.59-26.40L90.59-26.40L90.59-26.40Q89.66-25.41 89.66-23.30L89.66-23.30L89.66-22.53ZM131.46 0.90L131.46 0.90Q122.30 0.90 117.18-3.87L117.18-3.87L117.18-3.87Q112.06-8.64 112.06-17.79L112.06-17.79L112.06-17.79Q112.06-26.94 117.18-31.71L117.18-31.71L117.18-31.71Q122.30-36.48 131.39-36.48L131.39-36.48L131.39-36.48Q135.81-36.48 139.84-35.26L139.84-35.26L139.84-35.26Q143.87-34.05 146.11-32.51L146.11-32.51L146.11-19.84L135.10-19.84L135.10-20.99L135.10-20.99Q135.10-23.10 134.21-24.10L134.21-24.10L134.21-24.10Q133.31-25.09 131.39-25.09L131.39-25.09L131.39-25.09Q127.68-25.09 127.68-20.99L127.68-20.99L127.68-15.49L127.68-15.49Q127.68-10.50 133.38-10.50L133.38-10.50L133.38-10.50Q138.69-10.50 145.73-11.65L145.73-11.65L145.73-1.60L145.73-1.60Q143.55-0.64 139.62 0.13L139.62 0.13L139.62 0.13Q135.68 0.90 131.46 0.90L131.46 0.90ZM182.59 0L148.03 0L148.03-9.54L163.65-25.09L157.95-25.09L157.95-22.78L148.42-22.78L148.42-35.58L182.02-35.58L182.02-26.43L166.78-10.50L172.93-10.50L172.93-14.08L182.59-14.08L182.59 0ZM203.71 0.90L203.71 0.90Q194.62 0.90 189.50-3.87L189.50-3.87L189.50-3.87Q184.38-8.64 184.38-17.79L184.38-17.79L184.38-17.79Q184.38-26.94 189.50-31.71L189.50-31.71L189.50-31.71Q194.62-36.48 203.71-36.48L203.71-36.48L203.71-36.48Q212.74-36.48 216.74-31.78L216.74-31.78L216.74-31.78Q220.74-27.07 220.74-20.10L220.74-20.10L220.74-15.49L200.00-15.49L200.00-15.10L200.00-15.10Q200.00-12.74 201.41-11.62L201.41-11.62L201.41-11.62Q202.82-10.50 206.08-10.50L206.08-10.50L206.08-10.50Q209.98-10.50 213.50-11.07L213.50-11.07L213.50-11.07Q217.02-11.65 219.65-12.54L219.65-12.54L219.65-2.30L219.65-2.30Q217.41-1.09 213.09-0.10L213.09-0.10L213.09-0.10Q208.77 0.90 203.71 0.90L203.71 0.90ZM200.00-22.53L207.42-22.53L207.42-23.30L207.42-23.30Q207.42-25.47 206.50-26.43L206.50-26.43L206.50-26.43Q205.57-27.39 203.71-27.39L203.71-27.39L203.71-27.39Q201.86-27.39 200.93-26.40L200.93-26.40L200.93-26.40Q200.00-25.41 200.00-23.30L200.00-23.30L200.00-22.53ZM241.60 14.21L241.60 3.71L244.42 3.71L244.42-25.09L241.60-25.09L241.60-35.58L259.14-35.58L259.14-31.23L259.14-31.23Q260.74-33.28 263.26-34.88L263.26-34.88L263.26-34.88Q265.79-36.48 269.06-36.48L269.06-36.48L269.06-36.48Q275.58-36.48 278.88-31.62L278.88-31.62L278.88-31.62Q282.18-26.75 282.18-17.79L282.18-17.79L282.18-17.79Q282.18-8.83 278.88-3.97L278.88-3.97L278.88-3.97Q275.58 0.90 269.06 0.90L269.06 0.90L269.06 0.90Q265.79 0.90 263.26-0.70L263.26-0.70L263.26-0.70Q260.74-2.30 259.14-4.35L259.14-4.35L259.14 3.71L263.55 3.71L263.55 14.21L241.60 14.21ZM262.85-10.50L262.85-10.50Q264.70-10.50 265.63-11.49L265.63-11.49L265.63-11.49Q266.56-12.48 266.56-14.59L266.56-14.59L266.56-20.99L266.56-20.99Q266.56-23.10 265.63-24.10L265.63-24.10L265.63-24.10Q264.70-25.09 262.85-25.09L262.85-25.09L262.85-25.09Q260.99-25.09 260.06-24.10L260.06-24.10L260.06-24.10Q259.14-23.10 259.14-20.99L259.14-20.99L259.14-14.59L259.14-14.59Q259.14-12.48 260.06-11.49L260.06-11.49L260.06-11.49Q260.99-10.50 262.85-10.50L262.85-10.50ZM300.10-39.10L287.04-39.10L287.04-49.79L300.10-49.79L300.10-39.10ZM304.32 0L283.97 0L283.97-10.50L286.78-10.50L286.78-25.09L283.97-25.09L283.97-35.58L301.50-35.58L301.50-10.50L304.32-10.50L304.32 0ZM329.60-37.95L329.60-30.21L324.80-27.14L324.80-10.50L327.62-10.50L327.62 0.06L307.26 0.06L307.26-10.50L310.08-10.50L310.08-17.73L306.56-15.49L305.28-15.49L305.28-23.23L310.08-26.30L310.08-39.30L307.26-39.30L307.26-49.79L324.80-49.79L324.80-35.71L328.32-37.95L329.60-37.95ZM362.37-19.01L368.51-10.50L371.26-10.50L371.26 0L355.58 0L348.99-12.29L347.46-12.29L347.46 0L329.92 0L329.92-10.50L332.74-10.50L332.74-39.30L329.92-39.30L329.92-49.79L347.46-49.79L347.46-23.81L348.99-23.81L356.93-35.58L370.43-35.58L370.43-25.09L367.81-25.09L362.37-19.01ZM407.81-10.50L410.62-10.50L410.62 0L393.73 0L393.73-4.35L393.73-4.35Q392.32-2.30 389.79-0.70L389.79-0.70L389.79-0.70Q387.26 0.90 383.62 0.90L383.62 0.90L383.62 0.90Q378.82 0.90 376.06-1.66L376.06-1.66L376.06-1.66Q373.31-4.22 373.31-8.90L373.31-8.90L373.31-8.90Q373.31-20.99 393.86-21.31L393.86-21.31L393.86-21.31Q393.66-23.49 392.19-24.29L392.19-24.29L392.19-24.29Q390.72-25.09 387.20-25.09L387.20-25.09L387.20-25.09Q384.32-25.09 381.02-24.48L381.02-24.48L381.02-24.48Q377.73-23.87 374.98-22.85L374.98-22.85L374.98-34.62L374.98-34.62Q378.37-35.46 382.34-35.97L382.34-35.97L382.34-35.97Q386.30-36.48 390.08-36.48L390.08-36.48L390.08-36.48Q399.62-36.48 403.71-33.02L403.71-33.02L403.71-33.02Q407.81-29.57 407.81-22.34L407.81-22.34L407.81-10.50ZM393.73-14.59L393.73-14.98L393.73-14.98Q390.85-14.98 389.28-14.21L389.28-14.21L389.28-14.21Q387.71-13.44 387.71-11.65L387.71-11.65L387.71-11.65Q387.71-10.56 388.38-9.89L388.38-9.89L388.38-9.89Q389.06-9.22 390.27-9.22L390.27-9.22L390.27-9.22Q391.94-9.22 392.83-10.62L392.83-10.62L392.83-10.62Q393.73-12.03 393.73-14.59L393.73-14.59ZM440.00-36.48L440.00-36.48Q441.28-36.48 442.43-36.22L442.43-36.22L442.43-36.22Q443.58-35.97 444.35-35.58L444.35-35.58L444.35-23.36L444.35-23.36Q441.73-24.45 438.72-24.45L438.72-24.45L438.72-24.45Q434.69-24.45 432.51-22.34L432.51-22.34L432.51-22.34Q430.34-20.22 430.34-16.06L430.34-16.06L430.34-10.50L436.10-10.50L436.10 0L412.80 0L412.80-10.50L415.62-10.50L415.62-25.09L412.80-25.09L412.80-35.58L430.34-35.58L430.34-30.91L430.34-30.91Q432.13-33.60 434.43-35.04L434.43-35.04L434.43-35.04Q436.74-36.48 440.00-36.48L440.00-36.48ZM461.95 0.90L461.95 0.90Q453.89 0.90 446.40-1.66L446.40-1.66L446.40-11.14L456.77-11.14L456.77-10.50L456.77-10.50Q456.77-7.42 460.67-7.42L460.67-7.42L460.67-7.42Q464.13-7.42 464.13-9.79L464.13-9.79L464.13-9.79Q464.13-11.07 463.14-11.71L463.14-11.71L463.14-11.71Q462.14-12.35 459.65-12.80L459.65-12.80L456.45-13.38L456.45-13.38Q446.40-15.17 446.40-24.77L446.40-24.77L446.40-24.77Q446.40-30.34 450.62-33.41L450.62-33.41L450.62-33.41Q454.85-36.48 462.02-36.48L462.02-36.48L462.02-36.48Q470.02-36.48 475.52-33.79L475.52-33.79L475.52-24.90L465.79-24.90L465.79-25.54L465.79-25.54Q465.79-26.82 464.93-27.49L464.93-27.49L464.93-27.49Q464.06-28.16 462.40-28.16L462.40-28.16L462.40-28.16Q459.20-28.16 459.20-26.11L459.20-26.11L459.20-26.11Q459.20-25.02 460.10-24.45L460.10-24.45L460.10-24.45Q460.99-23.87 463.36-23.36L463.36-23.36L467.01-22.66L467.01-22.66Q472.70-21.57 475.14-18.62L475.14-18.62L475.14-18.62Q477.57-15.68 477.57-11.07L477.57-11.07L477.57-11.07Q477.57-5.25 473.50-2.18L473.50-2.18L473.50-2.18Q469.44 0.90 461.95 0.90L461.95 0.90ZM512.06-19.01L518.21-10.50L520.96-10.50L520.96 0L505.28 0L498.69-12.29L497.15-12.29L497.15 0L479.62 0L479.62-10.50L482.43-10.50L482.43-39.30L479.62-39.30L479.62-49.79L497.15-49.79L497.15-23.81L498.69-23.81L506.62-35.58L520.13-35.58L520.13-25.09L517.50-25.09L512.06-19.01ZM539.14-39.10L526.08-39.10L526.08-49.79L539.14-49.79L539.14-39.10ZM543.36 0L523.01 0L523.01-10.50L525.82-10.50L525.82-25.09L523.01-25.09L523.01-35.58L540.54-35.58L540.54-10.50L543.36-10.50L543.36 0ZM564.22 0.90L564.22 0.90Q555.14 0.90 550.02-3.87L550.02-3.87L550.02-3.87Q544.90-8.64 544.90-17.79L544.90-17.79L544.90-17.79Q544.90-26.94 550.02-31.71L550.02-31.71L550.02-31.71Q555.14-36.48 564.22-36.48L564.22-36.48L564.22-36.48Q573.25-36.48 577.25-31.78L577.25-31.78L577.25-31.78Q581.25-27.07 581.25-20.10L581.25-20.10L581.25-15.49L560.51-15.49L560.51-15.10L560.51-15.10Q560.51-12.74 561.92-11.62L561.92-11.62L561.92-11.62Q563.33-10.50 566.59-10.50L566.59-10.50L566.59-10.50Q570.50-10.50 574.02-11.07L574.02-11.07L574.02-11.07Q577.54-11.65 580.16-12.54L580.16-12.54L580.16-2.30L580.16-2.30Q577.92-1.09 573.60-0.10L573.60-0.10L573.60-0.10Q569.28 0.90 564.22 0.90L564.22 0.90ZM560.51-22.53L567.94-22.53L567.94-23.30L567.94-23.30Q567.94-25.47 567.01-26.43L567.01-26.43L567.01-26.43Q566.08-27.39 564.22-27.39L564.22-27.39L564.22-27.39Q562.37-27.39 561.44-26.40L561.44-26.40L561.44-26.40Q560.51-25.41 560.51-23.30L560.51-23.30L560.51-22.53Z" fill="#f00" stroke="#0f0" stroke-width="1.8"></path></g></g><g><g transform="translate(-41.26497769355774, 107.00000381469727)"><path d="M71.87-49.79L71.87-39.30L68.67-39.30L68.67-10.50L71.87-10.50L71.87 0L47.68 0L47.68-10.50L50.75-10.50L50.75-32.90L39.87 0L30.40 0L19.20-32.58L19.20-10.50L22.27-10.50L22.27 0L1.28 0L1.28-10.50L4.48-10.50L4.48-39.30L1.28-39.30L1.28-49.79L30.59-49.79L37.25-29.82L43.65-49.79L71.87-49.79ZM93.38 0.90L93.38 0.90Q84.29 0.90 79.17-3.87L79.17-3.87L79.17-3.87Q74.05-8.64 74.05-17.79L74.05-17.79L74.05-17.79Q74.05-26.94 79.17-31.71L79.17-31.71L79.17-31.71Q84.29-36.48 93.38-36.48L93.38-36.48L93.38-36.48Q102.40-36.48 106.40-31.78L106.40-31.78L106.40-31.78Q110.40-27.07 110.40-20.10L110.40-20.10L110.40-15.49L89.66-15.49L89.66-15.10L89.66-15.10Q89.66-12.74 91.07-11.62L91.07-11.62L91.07-11.62Q92.48-10.50 95.74-10.50L95.74-10.50L95.74-10.50Q99.65-10.50 103.17-11.07L103.17-11.07L103.17-11.07Q106.69-11.65 109.31-12.54L109.31-12.54L109.31-2.30L109.31-2.30Q107.07-1.09 102.75-0.10L102.75-0.10L102.75-0.10Q98.43 0.90 93.38 0.90L93.38 0.90ZM89.66-22.53L97.09-22.53L97.09-23.30L97.09-23.30Q97.09-25.47 96.16-26.43L96.16-26.43L96.16-26.43Q95.23-27.39 93.38-27.39L93.38-27.39L93.38-27.39Q91.52-27.39 90.59-26.40L90.59-26.40L90.59-26.40Q89.66-25.41 89.66-23.30L89.66-23.30L89.66-22.53ZM131.46 0.90L131.46 0.90Q122.30 0.90 117.18-3.87L117.18-3.87L117.18-3.87Q112.06-8.64 112.06-17.79L112.06-17.79L112.06-17.79Q112.06-26.94 117.18-31.71L117.18-31.71L117.18-31.71Q122.30-36.48 131.39-36.48L131.39-36.48L131.39-36.48Q135.81-36.48 139.84-35.26L139.84-35.26L139.84-35.26Q143.87-34.05 146.11-32.51L146.11-32.51L146.11-19.84L135.10-19.84L135.10-20.99L135.10-20.99Q135.10-23.10 134.21-24.10L134.21-24.10L134.21-24.10Q133.31-25.09 131.39-25.09L131.39-25.09L131.39-25.09Q127.68-25.09 127.68-20.99L127.68-20.99L127.68-15.49L127.68-15.49Q127.68-10.50 133.38-10.50L133.38-10.50L133.38-10.50Q138.69-10.50 145.73-11.65L145.73-11.65L145.73-1.60L145.73-1.60Q143.55-0.64 139.62 0.13L139.62 0.13L139.62 0.13Q135.68 0.90 131.46 0.90L131.46 0.90ZM182.59 0L148.03 0L148.03-9.54L163.65-25.09L157.95-25.09L157.95-22.78L148.42-22.78L148.42-35.58L182.02-35.58L182.02-26.43L166.78-10.50L172.93-10.50L172.93-14.08L182.59-14.08L182.59 0ZM203.71 0.90L203.71 0.90Q194.62 0.90 189.50-3.87L189.50-3.87L189.50-3.87Q184.38-8.64 184.38-17.79L184.38-17.79L184.38-17.79Q184.38-26.94 189.50-31.71L189.50-31.71L189.50-31.71Q194.62-36.48 203.71-36.48L203.71-36.48L203.71-36.48Q212.74-36.48 216.74-31.78L216.74-31.78L216.74-31.78Q220.74-27.07 220.74-20.10L220.74-20.10L220.74-15.49L200.00-15.49L200.00-15.10L200.00-15.10Q200.00-12.74 201.41-11.62L201.41-11.62L201.41-11.62Q202.82-10.50 206.08-10.50L206.08-10.50L206.08-10.50Q209.98-10.50 213.50-11.07L213.50-11.07L213.50-11.07Q217.02-11.65 219.65-12.54L219.65-12.54L219.65-2.30L219.65-2.30Q217.41-1.09 213.09-0.10L213.09-0.10L213.09-0.10Q208.77 0.90 203.71 0.90L203.71 0.90ZM200.00-22.53L207.42-22.53L207.42-23.30L207.42-23.30Q207.42-25.47 206.50-26.43L206.50-26.43L206.50-26.43Q205.57-27.39 203.71-27.39L203.71-27.39L203.71-27.39Q201.86-27.39 200.93-26.40L200.93-26.40L200.93-26.40Q200.00-25.41 200.00-23.30L200.00-23.30L200.00-22.53ZM241.60 14.21L241.60 3.71L244.42 3.71L244.42-25.09L241.60-25.09L241.60-35.58L259.14-35.58L259.14-31.23L259.14-31.23Q260.74-33.28 263.26-34.88L263.26-34.88L263.26-34.88Q265.79-36.48 269.06-36.48L269.06-36.48L269.06-36.48Q275.58-36.48 278.88-31.62L278.88-31.62L278.88-31.62Q282.18-26.75 282.18-17.79L282.18-17.79L282.18-17.79Q282.18-8.83 278.88-3.97L278.88-3.97L278.88-3.97Q275.58 0.90 269.06 0.90L269.06 0.90L269.06 0.90Q265.79 0.90 263.26-0.70L263.26-0.70L263.26-0.70Q260.74-2.30 259.14-4.35L259.14-4.35L259.14 3.71L263.55 3.71L263.55 14.21L241.60 14.21ZM262.85-10.50L262.85-10.50Q264.70-10.50 265.63-11.49L265.63-11.49L265.63-11.49Q266.56-12.48 266.56-14.59L266.56-14.59L266.56-20.99L266.56-20.99Q266.56-23.10 265.63-24.10L265.63-24.10L265.63-24.10Q264.70-25.09 262.85-25.09L262.85-25.09L262.85-25.09Q260.99-25.09 260.06-24.10L260.06-24.10L260.06-24.10Q259.14-23.10 259.14-20.99L259.14-20.99L259.14-14.59L259.14-14.59Q259.14-12.48 260.06-11.49L260.06-11.49L260.06-11.49Q260.99-10.50 262.85-10.50L262.85-10.50ZM300.10-39.10L287.04-39.10L287.04-49.79L300.10-49.79L300.10-39.10ZM304.32 0L283.97 0L283.97-10.50L286.78-10.50L286.78-25.09L283.97-25.09L283.97-35.58L301.50-35.58L301.50-10.50L304.32-10.50L304.32 0ZM329.60-37.95L329.60-30.21L324.80-27.14L324.80-10.50L327.62-10.50L327.62 0.06L307.26 0.06L307.26-10.50L310.08-10.50L310.08-17.73L306.56-15.49L305.28-15.49L305.28-23.23L310.08-26.30L310.08-39.30L307.26-39.30L307.26-49.79L324.80-49.79L324.80-35.71L328.32-37.95L329.60-37.95ZM362.37-19.01L368.51-10.50L371.26-10.50L371.26 0L355.58 0L348.99-12.29L347.46-12.29L347.46 0L329.92 0L329.92-10.50L332.74-10.50L332.74-39.30L329.92-39.30L329.92-49.79L347.46-49.79L347.46-23.81L348.99-23.81L356.93-35.58L370.43-35.58L370.43-25.09L367.81-25.09L362.37-19.01ZM407.81-10.50L410.62-10.50L410.62 0L393.73 0L393.73-4.35L393.73-4.35Q392.32-2.30 389.79-0.70L389.79-0.70L389.79-0.70Q387.26 0.90 383.62 0.90L383.62 0.90L383.62 0.90Q378.82 0.90 376.06-1.66L376.06-1.66L376.06-1.66Q373.31-4.22 373.31-8.90L373.31-8.90L373.31-8.90Q373.31-20.99 393.86-21.31L393.86-21.31L393.86-21.31Q393.66-23.49 392.19-24.29L392.19-24.29L392.19-24.29Q390.72-25.09 387.20-25.09L387.20-25.09L387.20-25.09Q384.32-25.09 381.02-24.48L381.02-24.48L381.02-24.48Q377.73-23.87 374.98-22.85L374.98-22.85L374.98-34.62L374.98-34.62Q378.37-35.46 382.34-35.97L382.34-35.97L382.34-35.97Q386.30-36.48 390.08-36.48L390.08-36.48L390.08-36.48Q399.62-36.48 403.71-33.02L403.71-33.02L403.71-33.02Q407.81-29.57 407.81-22.34L407.81-22.34L407.81-10.50ZM393.73-14.59L393.73-14.98L393.73-14.98Q390.85-14.98 389.28-14.21L389.28-14.21L389.28-14.21Q387.71-13.44 387.71-11.65L387.71-11.65L387.71-11.65Q387.71-10.56 388.38-9.89L388.38-9.89L388.38-9.89Q389.06-9.22 390.27-9.22L390.27-9.22L390.27-9.22Q391.94-9.22 392.83-10.62L392.83-10.62L392.83-10.62Q393.73-12.03 393.73-14.59L393.73-14.59ZM440.00-36.48L440.00-36.48Q441.28-36.48 442.43-36.22L442.43-36.22L442.43-36.22Q443.58-35.97 444.35-35.58L444.35-35.58L444.35-23.36L444.35-23.36Q441.73-24.45 438.72-24.45L438.72-24.45L438.72-24.45Q434.69-24.45 432.51-22.34L432.51-22.34L432.51-22.34Q430.34-20.22 430.34-16.06L430.34-16.06L430.34-10.50L436.10-10.50L436.10 0L412.80 0L412.80-10.50L415.62-10.50L415.62-25.09L412.80-25.09L412.80-35.58L430.34-35.58L430.34-30.91L430.34-30.91Q432.13-33.60 434.43-35.04L434.43-35.04L434.43-35.04Q436.74-36.48 440.00-36.48L440.00-36.48ZM461.95 0.90L461.95 0.90Q453.89 0.90 446.40-1.66L446.40-1.66L446.40-11.14L456.77-11.14L456.77-10.50L456.77-10.50Q456.77-7.42 460.67-7.42L460.67-7.42L460.67-7.42Q464.13-7.42 464.13-9.79L464.13-9.79L464.13-9.79Q464.13-11.07 463.14-11.71L463.14-11.71L463.14-11.71Q462.14-12.35 459.65-12.80L459.65-12.80L456.45-13.38L456.45-13.38Q446.40-15.17 446.40-24.77L446.40-24.77L446.40-24.77Q446.40-30.34 450.62-33.41L450.62-33.41L450.62-33.41Q454.85-36.48 462.02-36.48L462.02-36.48L462.02-36.48Q470.02-36.48 475.52-33.79L475.52-33.79L475.52-24.90L465.79-24.90L465.79-25.54L465.79-25.54Q465.79-26.82 464.93-27.49L464.93-27.49L464.93-27.49Q464.06-28.16 462.40-28.16L462.40-28.16L462.40-28.16Q459.20-28.16 459.20-26.11L459.20-26.11L459.20-26.11Q459.20-25.02 460.10-24.45L460.10-24.45L460.10-24.45Q460.99-23.87 463.36-23.36L463.36-23.36L467.01-22.66L467.01-22.66Q472.70-21.57 475.14-18.62L475.14-18.62L475.14-18.62Q477.57-15.68 477.57-11.07L477.57-11.07L477.57-11.07Q477.57-5.25 473.50-2.18L473.50-2.18L473.50-2.18Q469.44 0.90 461.95 0.90L461.95 0.90ZM512.06-19.01L518.21-10.50L520.96-10.50L520.96 0L505.28 0L498.69-12.29L497.15-12.29L497.15 0L479.62 0L479.62-10.50L482.43-10.50L482.43-39.30L479.62-39.30L479.62-49.79L497.15-49.79L497.15-23.81L498.69-23.81L506.62-35.58L520.13-35.58L520.13-25.09L517.50-25.09L512.06-19.01ZM539.14-39.10L526.08-39.10L526.08-49.79L539.14-49.79L539.14-39.10ZM543.36 0L523.01 0L523.01-10.50L525.82-10.50L525.82-25.09L523.01-25.09L523.01-35.58L540.54-35.58L540.54-10.50L543.36-10.50L543.36 0ZM564.22 0.90L564.22 0.90Q555.14 0.90 550.02-3.87L550.02-3.87L550.02-3.87Q544.90-8.64 544.90-17.79L544.90-17.79L544.90-17.79Q544.90-26.94 550.02-31.71L550.02-31.71L550.02-31.71Q555.14-36.48 564.22-36.48L564.22-36.48L564.22-36.48Q573.25-36.48 577.25-31.78L577.25-31.78L577.25-31.78Q581.25-27.07 581.25-20.10L581.25-20.10L581.25-15.49L560.51-15.49L560.51-15.10L560.51-15.10Q560.51-12.74 561.92-11.62L561.92-11.62L561.92-11.62Q563.33-10.50 566.59-10.50L566.59-10.50L566.59-10.50Q570.50-10.50 574.02-11.07L574.02-11.07L574.02-11.07Q577.54-11.65 580.16-12.54L580.16-12.54L580.16-2.30L580.16-2.30Q577.92-1.09 573.60-0.10L573.60-0.10L573.60-0.10Q569.28 0.90 564.22 0.90L564.22 0.90ZM560.51-22.53L567.94-22.53L567.94-23.30L567.94-23.30Q567.94-25.47 567.01-26.43L567.01-26.43L567.01-26.43Q566.08-27.39 564.22-27.39L564.22-27.39L564.22-27.39Q562.37-27.39 561.44-26.40L561.44-26.40L561.44-26.40Q560.51-25.41 560.51-23.30L560.51-23.30L560.51-22.53Z" fill="none" stroke="#17202a" stroke-width="2.1"></path></g></g></g><style>text {
  font-size: 64px;
  font-family: Arial Black;
  dominant-baseline: central;
  text-anchor: middle;
}</style></svg>