<svg width="726.4250732421875px" height="122px" xmlns="http://www.w3.org/2000/svg" viewBox="-113.21253662109376 14 726.4250732421875 122" style="background: rgb(23, 32, 42);" preserveAspectRatio="xMidYMid"><defs><filter id="editing-vintage" x="-100%" y="-100%" width="300%" height="300%"><feConvolveMatrix in="SourceGraphic" result="extrude" order="9,9" divisor="1" kernelMatrix="1,0,0,0,0,0,0,0,0,0,1,0,0,0,0,0,0,0,0,0,1,0,0,0,0,0,0,0,0,0,1,0,0,0,0,0,0,0,0,0,1,0,0,0,0,0,0,0,0,0,1,0,0,0,0,0,0,0,0,0,1,0,0,0,0,0,0,0,0,0,1,0,0,0,0,0,0,0,0,0,1"> </feConvolveMatrix><feFlood flood-color="#020621" result="flood-extrude"></feFlood><feComposite operator="in" in="flood-extrude" in2="extrude" result="extrude-color"></feComposite><feOffset dx="5" dy="5" in="extrude-color" result="extrude-offset"></feOffset><feColorMatrix in="SourceGraphic" result="stroke" type="matrix" values="0 0 0 0 0 0 0 0 0 0 0 0 0 0 0 0 1 0 0 0 "></feColorMatrix><feColorMatrix in="SourceGraphic" result="fill" type="matrix" values="0 0 0 0 0 0 0 0 0 0 0 0 0 0 0 1 0 0 1 0 "></feColorMatrix><feConvolveMatrix in="stroke" result="inner-shadow" order="5,5" divisor="1" kernelMatrix="1 0 0 0 0 0 1 0 0 0 0 0 1 0 0 0 0 0 1 0 0 0 0 0 1 "></feConvolveMatrix><feOffset dx="1" dy="1" in="inner-shadow" result="offset"></feOffset><feComposite operator="in" in="offset" in2="SourceAlpha" result="comp"></feComposite><feFlood flood-color="#020621" result="flood3"></feFlood><feComposite operator="in" in="flood3" in2="comp" result="comp2"></feComposite><feColorMatrix in="comp2" result="comp3" type="matrix" values="1 0 0 0 0 0 1 0 0 0 0 0 1 0 0 0 0 0 0.5 0 "></feColorMatrix><feFlood flood-color="#69f0ae" result="flood1"></feFlood><feComposite operator="in" in="flood1" in2="fill" result="fill2"></feComposite><feFlood flood-color="#fff" result="flood2"></feFlood><feComposite operator="in" in="flood2" in2="stroke" result="stroke2"></feComposite><feMerge result="obj"><feMergeNode in="extrude-offset"></feMergeNode><feMergeNode in="fill2"></feMergeNode><feMergeNode in="comp3"></feMergeNode></feMerge><feConvolveMatrix in="SourceAlpha" result="shadow" order="9,9" divisor="1" kernelMatrix="1,0,0,0,0,0,0,0,0,0,1,0,0,0,0,0,0,0,0,0,1,0,0,0,0,0,0,0,0,0,1,0,0,0,0,0,0,0,0,0,1,0,0,0,0,0,0,0,0,0,1,0,0,0,0,0,0,0,0,0,1,0,0,0,0,0,0,0,0,0,1,0,0,0,0,0,0,0,0,0,1"></feConvolveMatrix><feOffset dx="15" dy="15" in="shadow" result="shadow-offset"></feOffset><feFlood flood-color="#47a376" result="flood-shadow"></feFlood><feComposite operator="in" in="flood-shadow" in2="shadow-offset" result="shadow-color"></feComposite><feMerge><feMergeNode in="shadow-color"></feMergeNode><feMergeNode in="obj"></feMergeNode></feMerge></filter></defs><g transform="translate(-9,-9)"><g filter="url(#editing-vintage)"><g transform="translate(0.12264645099639893, 104.76000022888184)"><path d="M6.53 0L-0.83 0L10.75-42.24L24.13-42.24L27.07-18.11L38.98-42.24L50.18-42.24L51.33-10.62L51.33-10.62Q51.58-4.35 54.66-2.43L54.66-2.43L54.66-2.43Q53.95-1.15 51.90 0.06L51.90 0.06L51.90 0.06Q49.86 1.28 47.14 1.28L47.14 1.28L47.14 1.28Q44.42 1.28 42.82 0.51L42.82 0.51L42.82 0.51Q41.22-0.26 40.32-1.54L40.32-1.54L40.32-1.54Q38.72-3.84 38.72-8.26L38.72-8.26L38.72-28.03L26.11 0L18.18 0L13.70-28.74L6.53 0ZM83.33-10.82L83.33-10.82L83.33-10.82Q84.93-9.73 84.93-7.33L84.93-7.33L84.93-7.33Q84.93-4.93 83.71-3.39L83.71-3.39L83.71-3.39Q82.50-1.86 80.51-0.83L80.51-0.83L80.51-0.83Q76.42 1.28 72 1.28L72 1.28L72 1.28Q67.58 1.28 64.99 0.32L64.99 0.32L64.99 0.32Q62.40-0.64 60.67-2.43L60.67-2.43L60.67-2.43Q57.28-5.82 57.28-12.03L57.28-12.03L57.28-12.03Q57.28-21.70 62.53-27.58L62.53-27.58L62.53-27.58Q68.16-33.92 77.95-33.92L77.95-33.92L77.95-33.92Q84.03-33.92 87.04-31.36L87.04-31.36L87.04-31.36Q89.28-29.44 89.28-26.30L89.28-26.30L89.28-26.30Q89.28-15.04 69.82-15.04L69.82-15.04L69.82-15.04Q69.57-13.38 69.57-11.97L69.57-11.97L69.57-11.97Q69.57-9.02 70.88-7.90L70.88-7.90L70.88-7.90Q72.19-6.78 74.62-6.78L74.62-6.78L74.62-6.78Q77.06-6.78 79.65-7.90L79.65-7.90L79.65-7.90Q82.24-9.02 83.33-10.82ZM70.27-17.79L70.27-17.79L70.27-17.79Q74.82-17.79 77.44-20.61L77.44-20.61L77.44-20.61Q80.06-23.30 80.06-27.58L80.06-27.58L80.06-27.58Q80.06-29.06 79.52-29.86L79.52-29.86L79.52-29.86Q78.98-30.66 77.89-30.66L77.89-30.66L77.89-30.66Q76.80-30.66 75.87-30.24L75.87-30.24L75.87-30.24Q74.94-29.82 73.98-28.42L73.98-28.42L73.98-28.42Q71.62-25.22 70.27-17.79ZM122.88-26.62L122.88-26.62L122.88-26.62Q122.88-23.94 120.64-22.27L120.64-22.27L120.64-22.27Q118.40-20.61 114.75-20.61L114.75-20.61L114.75-20.61Q113.22-20.61 112.32-21.06L112.32-21.06L112.32-21.06Q113.02-22.72 113.25-24.80L113.25-24.80L113.25-24.80Q113.47-26.88 113.47-27.46L113.47-27.46L113.47-27.46Q113.47-30.14 111.62-30.14L111.62-30.14L111.62-30.14Q110.34-30.14 108.90-28.54L108.90-28.54L108.90-28.54Q107.46-26.94 106.24-24.45L106.24-24.45L106.24-24.45Q103.55-18.69 103.55-12.86L103.55-12.86L103.55-12.86Q103.55-9.66 104.77-8.22L104.77-8.22L104.77-8.22Q105.98-6.78 108.67-6.78L108.67-6.78L108.67-6.78Q112.38-6.78 115.33-9.86L115.33-9.86L115.33-9.86Q116.16-10.82 116.61-11.90L116.61-11.90L116.61-11.90Q119.04-10.62 119.04-7.10L119.04-7.10L119.04-7.10Q119.04-3.52 115.07-1.15L115.07-1.15L115.07-1.15Q110.98 1.28 104.45 1.28L104.45 1.28L104.45 1.28Q91.46 1.28 91.46-12.48L91.46-12.48L91.46-12.48Q91.46-22.53 97.15-28.29L97.15-28.29L97.15-28.29Q102.66-33.92 112.77-33.92L112.77-33.92L112.77-33.92Q122.88-33.92 122.88-26.62ZM136.93 0.64L136.93 0.64L136.93 0.64Q133.89 0 132.32-0.29L132.32-0.29L132.32-0.29Q130.75-0.58 128.93-0.58L128.93-0.58L128.93-0.58Q127.10-0.58 125.31 0.06L125.31 0.06L125.31 0.06Q124.35-0.51 123.74-1.66L123.74-1.66L123.74-1.66Q123.14-2.82 123.14-4.61L123.14-4.61L123.14-4.61Q123.14-8.38 126.98-11.26L126.98-11.26L143.23-22.98L143.23-22.98Q138.69-24.26 134.56-24.26L134.56-24.26L134.56-24.26Q130.43-24.26 128.96-21.44L128.96-21.44L128.96-21.44Q126.78-24 126.78-28.03L126.78-28.03L126.78-28.03Q126.78-30.72 128.74-32.48L128.74-32.48L128.74-32.48Q130.69-34.24 134.78-34.24L134.78-34.24L134.78-34.24Q137.09-34.24 139.17-33.95L139.17-33.95L139.17-33.95Q141.25-33.66 143.10-33.41L143.10-33.41L146.56-32.90L146.56-32.90Q148.22-32.64 149.92-32.64L149.92-32.64L149.92-32.64Q151.62-32.64 152.90-33.34L152.90-33.34L152.90-33.34Q154.56-31.81 154.56-29.70L154.56-29.70L154.56-29.70Q154.56-26.37 150.46-22.91L150.46-22.91L134.27-10.82L134.27-10.82Q139.26-9.34 141.82-9.34L141.82-9.34L141.82-9.34Q147.20-9.34 149.50-11.90L149.50-11.90L149.50-11.90Q151.30-9.86 151.30-6.30L151.30-6.30L151.30-6.30Q151.30-2.75 148.99-0.74L148.99-0.74L148.99-0.74Q146.69 1.28 142.53 1.28L142.53 1.28L142.53 1.28Q139.97 1.28 136.93 0.64ZM182.78-10.82L182.78-10.82L182.78-10.82Q184.38-9.73 184.38-7.33L184.38-7.33L184.38-7.33Q184.38-4.93 183.17-3.39L183.17-3.39L183.17-3.39Q181.95-1.86 179.97-0.83L179.97-0.83L179.97-0.83Q175.87 1.28 171.46 1.28L171.46 1.28L171.46 1.28Q167.04 1.28 164.45 0.32L164.45 0.32L164.45 0.32Q161.86-0.64 160.13-2.43L160.13-2.43L160.13-2.43Q156.74-5.82 156.74-12.03L156.74-12.03L156.74-12.03Q156.74-21.70 161.98-27.58L161.98-27.58L161.98-27.58Q167.62-33.92 177.41-33.92L177.41-33.92L177.41-33.92Q183.49-33.92 186.50-31.36L186.50-31.36L186.50-31.36Q188.74-29.44 188.74-26.30L188.74-26.30L188.74-26.30Q188.74-15.04 169.28-15.04L169.28-15.04L169.28-15.04Q169.02-13.38 169.02-11.97L169.02-11.97L169.02-11.97Q169.02-9.02 170.34-7.90L170.34-7.90L170.34-7.90Q171.65-6.78 174.08-6.78L174.08-6.78L174.08-6.78Q176.51-6.78 179.10-7.90L179.10-7.90L179.10-7.90Q181.70-9.02 182.78-10.82ZM169.73-17.79L169.73-17.79L169.73-17.79Q174.27-17.79 176.90-20.61L176.90-20.61L176.90-20.61Q179.52-23.30 179.52-27.58L179.52-27.58L179.52-27.58Q179.52-29.06 178.98-29.86L178.98-29.86L178.98-29.86Q178.43-30.66 177.34-30.66L177.34-30.66L177.34-30.66Q176.26-30.66 175.33-30.24L175.33-30.24L175.33-30.24Q174.40-29.82 173.44-28.42L173.44-28.42L173.44-28.42Q171.07-25.22 169.73-17.79ZM233.92-4.38L233.92-4.38L233.92-4.38Q231.23-1.66 227.55-0.19L227.55-0.19L227.55-0.19Q223.87 1.28 220.22 1.28L220.22 1.28L220.22 1.28Q216.58 1.28 215.30 0.64L215.30 0.64L213.31 11.52L200.32 12.80L209.15-32.64L219.58-33.73L218.75-29.31L218.75-29.31Q221.44-33.86 227.01-33.86L227.01-33.86L227.01-33.86Q233.28-33.86 236.61-29.82L236.61-29.82L236.61-29.82Q239.55-26.18 239.55-20.61L239.55-20.61L239.55-20.61Q239.55-15.04 238.08-11.07L238.08-11.07L238.08-11.07Q236.61-7.10 233.92-4.38ZM219.46-22.34L216.06-3.58L216.06-3.58Q217.41-2.43 219.07-2.43L219.07-2.43L219.07-2.43Q220.74-2.43 221.70-3.07L221.70-3.07L221.70-3.07Q222.66-3.71 223.36-4.99L223.36-4.99L223.36-4.99Q225.28-8.45 226.82-18.94L226.82-18.94L226.82-18.94Q227.26-22.02 227.26-25.02L227.26-25.02L227.26-25.02Q227.26-28.03 226.59-28.99L226.59-28.99L226.59-28.99Q225.92-29.95 224.64-29.95L224.64-29.95L224.64-29.95Q220.74-29.95 219.46-22.34L219.46-22.34ZM258.75-3.52L258.75-3.52L258.75-3.52Q256.77 1.28 250.43 1.28L250.43 1.28L250.43 1.28Q247.17 1.28 245.12-0.96L245.12-0.96L245.12-0.96Q243.39-2.94 243.39-4.93L243.39-4.93L243.39-4.93Q243.39-10.11 245.76-20.22L245.76-20.22L248.13-32.64L261.12-33.92L257.22-13.70L257.22-13.70Q256.13-8.96 256.13-7.30L256.13-7.30L256.13-7.30Q256.13-3.65 258.75-3.52ZM249.28-41.54L249.28-41.54L249.28-41.54Q249.28-44.03 251.36-45.38L251.36-45.38L251.36-45.38Q253.44-46.72 256.45-46.72L256.45-46.72L256.45-46.72Q259.46-46.72 261.28-45.38L261.28-45.38L261.28-45.38Q263.10-44.03 263.10-41.54L263.10-41.54L263.10-41.54Q263.10-39.04 261.09-37.76L261.09-37.76L261.09-37.76Q259.07-36.48 256.06-36.48L256.06-36.48L256.06-36.48Q253.06-36.48 251.17-37.76L251.17-37.76L251.17-37.76Q249.28-39.04 249.28-41.54ZM280.70-30.34L280.70-30.34L280.70-30.34Q284.16-33.92 291.46-33.92L291.46-33.92L291.46-33.92Q295.49-33.92 297.70-31.78L297.70-31.78L297.70-31.78Q299.90-29.63 299.90-25.70L299.90-25.70L299.90-25.70Q299.90-21.76 297.70-18.98L297.70-18.98L297.70-18.98Q295.49-16.19 291.39-15.04L291.39-15.04L291.39-15.04Q291.71-13.76 292.16-12.42L292.16-12.42L293.06-9.86L293.06-9.86Q294.27-6.59 295.23-5.44L295.23-5.44L295.23-5.44Q296.19-4.29 297.47-3.90L297.47-3.90L297.47-3.90Q296.77-1.28 294.21 0.13L294.21 0.13L294.21 0.13Q292.16 1.28 289.34 1.28L289.34 1.28L289.34 1.28Q281.09 1.28 280-11.46L280-11.46L280-11.46Q279.81-13.25 279.81-15.04L279.81-15.04L279.81-15.04Q283.01-15.94 285.25-18.94L285.25-18.94L285.25-18.94Q287.49-21.95 287.49-25.47L287.49-25.47L287.49-25.47Q287.49-28.99 284.99-28.99L284.99-28.99L284.99-28.99Q283.20-28.99 281.79-27.01L281.79-27.01L281.79-27.01Q280.38-25.02 279.74-21.63L279.74-21.63L275.52 0L262.59 1.28L271.55-44.80L284.42-46.08L282.94-38.46L282.94-38.46Q281.98-33.09 280.70-30.34ZM305.63-1.92L305.63-1.92L305.63-1.92Q304.13-3.58 303.46-6.21L303.46-6.21L303.46-6.21Q302.78-8.83 302.78-13.12L302.78-13.12L302.78-13.12Q302.78-17.41 304.26-21.31L304.26-21.31L304.26-21.31Q305.73-25.22 308.42-28.03L308.42-28.03L308.42-28.03Q313.92-33.92 323.01-33.92L323.01-33.92L323.01-33.92Q326.27-33.92 328.64-32.83L328.64-32.83L339.58-33.92L334.85-8.96L334.85-8.96Q334.66-8.19 334.66-6.78L334.66-6.78L334.66-6.78Q334.66-5.38 335.52-4.48L335.52-4.48L335.52-4.48Q336.38-3.58 337.66-3.46L337.66-3.46L337.66-3.46Q337.02-1.28 334.69 0L334.69 0L334.69 0Q332.35 1.28 329.73 1.28L329.73 1.28L329.73 1.28Q327.10 1.28 325.34 0.29L325.34 0.29L325.34 0.29Q323.58-0.70 323.07-2.37L323.07-2.37L323.07-2.37Q322.05-0.77 319.87 0.26L319.87 0.26L319.87 0.26Q317.70 1.28 314.78 1.28L314.78 1.28L314.78 1.28Q311.87 1.28 309.50 0.51L309.50 0.51L309.50 0.51Q307.14-0.26 305.63-1.92ZM319.14-27.90L319.14-27.90L319.14-27.90Q318.40-26.75 317.76-24.80L317.76-24.80L317.76-24.80Q317.12-22.85 316.06-17.63L316.06-17.63L316.06-17.63Q315.01-12.42 315.01-8.70L315.01-8.70L315.01-8.70Q315.01-4.99 315.58-3.90L315.58-3.90L315.58-3.90Q316.16-2.82 317.18-2.82L317.18-2.82L317.18-2.82Q319.23-2.82 320.74-4.77L320.74-4.77L320.74-4.77Q322.24-6.72 322.82-10.18L322.82-10.18L326.21-28.93L326.21-28.93Q324.86-30.08 323.30-30.08L323.30-30.08L323.30-30.08Q321.73-30.08 320.80-29.57L320.80-29.57L320.80-29.57Q319.87-29.06 319.14-27.90ZM363.07-17.98L363.07-17.98L363.07-17.98Q365.38-22.08 365.38-26.24L365.38-26.24L365.38-26.24Q365.38-28.99 363.39-28.99L363.39-28.99L363.39-28.99Q361.86-28.99 360.26-26.37L360.26-26.37L360.26-26.37Q358.59-23.74 358.08-20.35L358.08-20.35L354.75 0L341.50 1.28L348.03-32.64L358.59-33.92L357.44-27.46L357.44-27.46Q360.58-33.92 367.62-33.92L367.62-33.92L367.62-33.92Q371.33-33.92 373.34-32L373.34-32L373.34-32Q375.36-30.08 375.36-26.14L375.36-26.14L375.36-26.14Q375.36-22.21 372.77-19.71L372.77-19.71L372.77-19.71Q370.18-17.22 365.76-17.22L365.76-17.22L365.76-17.22Q363.84-17.22 363.07-17.98ZM395.52-22.46L395.52-22.46L395.52-22.46Q396.42-24.83 396.42-26.88L396.42-26.88L396.42-26.88Q396.42-30.66 393.34-30.66L393.34-30.66L393.34-30.66Q391.74-30.66 390.43-29.22L390.43-29.22L390.43-29.22Q389.12-27.78 389.12-25.98L389.12-25.98L389.12-25.98Q389.12-24.70 390.14-23.68L390.14-23.68L390.14-23.68Q391.62-22.27 395.39-19.97L395.39-19.97L395.39-19.97Q399.17-17.66 400.61-15.78L400.61-15.78L400.61-15.78Q402.05-13.89 402.05-11.30L402.05-11.30L402.05-11.30Q402.05-8.70 400.80-6.34L400.80-6.34L400.80-6.34Q399.55-3.97 397.31-2.30L397.31-2.30L397.31-2.30Q392.51 1.28 384.83 1.28L384.83 1.28L384.83 1.28Q380.67 1.28 377.47-0.90L377.47-0.90L377.47-0.90Q374.27-3.01 374.27-5.50L374.27-5.50L374.27-5.50Q374.27-8 376.10-9.47L376.10-9.47L376.10-9.47Q377.92-10.94 380.61-10.94L380.61-10.94L380.61-10.94Q383.30-10.94 384.96-9.92L384.96-9.92L384.96-9.92Q384.13-7.81 384.13-6.40L384.13-6.40L384.13-6.40Q384.13-2.18 387.71-2.18L387.71-2.18L387.71-2.18Q389.25-2.18 390.27-3.14L390.27-3.14L390.27-3.14Q391.30-4.10 391.30-5.76L391.30-5.76L391.30-5.76Q391.30-9.02 385.79-12.48L385.79-12.48L385.79-12.48Q381.31-15.42 380.29-16.58L380.29-16.58L380.29-16.58Q378.56-18.62 378.56-21.18L378.56-21.18L378.56-21.18Q378.56-23.74 379.78-26.18L379.78-26.18L379.78-26.18Q380.99-28.61 383.23-30.34L383.23-30.34L383.23-30.34Q387.90-33.92 396.03-33.92L396.03-33.92L396.03-33.92Q400.19-33.92 402.66-32.26L402.66-32.26L402.66-32.26Q405.12-30.59 405.12-27.78L405.12-27.78L405.12-27.78Q405.12-24.96 403.42-23.36L403.42-23.36L403.42-23.36Q401.73-21.76 398.66-21.76L398.66-21.76L398.66-21.76Q396.54-21.76 395.52-22.46ZM424-30.34L424-30.34L424-30.34Q427.46-33.92 434.75-33.92L434.75-33.92L434.75-33.92Q438.78-33.92 440.99-31.78L440.99-31.78L440.99-31.78Q443.20-29.63 443.20-25.70L443.20-25.70L443.20-25.70Q443.20-21.76 440.99-18.98L440.99-18.98L440.99-18.98Q438.78-16.19 434.69-15.04L434.69-15.04L434.69-15.04Q435.01-13.76 435.46-12.42L435.46-12.42L436.35-9.86L436.35-9.86Q437.57-6.59 438.53-5.44L438.53-5.44L438.53-5.44Q439.49-4.29 440.77-3.90L440.77-3.90L440.77-3.90Q440.06-1.28 437.50 0.13L437.50 0.13L437.50 0.13Q435.46 1.28 432.64 1.28L432.64 1.28L432.64 1.28Q424.38 1.28 423.30-11.46L423.30-11.46L423.30-11.46Q423.10-13.25 423.10-15.04L423.10-15.04L423.10-15.04Q426.30-15.94 428.54-18.94L428.54-18.94L428.54-18.94Q430.78-21.95 430.78-25.47L430.78-25.47L430.78-25.47Q430.78-28.99 428.29-28.99L428.29-28.99L428.29-28.99Q426.50-28.99 425.09-27.01L425.09-27.01L425.09-27.01Q423.68-25.02 423.04-21.63L423.04-21.63L418.82 0L405.89 1.28L414.85-44.80L427.71-46.08L426.24-38.46L426.24-38.46Q425.28-33.09 424-30.34ZM461.50-3.52L461.50-3.52L461.50-3.52Q459.52 1.28 453.18 1.28L453.18 1.28L453.18 1.28Q449.92 1.28 447.87-0.96L447.87-0.96L447.87-0.96Q446.14-2.94 446.14-4.93L446.14-4.93L446.14-4.93Q446.14-10.11 448.51-20.22L448.51-20.22L450.88-32.64L463.87-33.92L459.97-13.70L459.97-13.70Q458.88-8.96 458.88-7.30L458.88-7.30L458.88-7.30Q458.88-3.65 461.50-3.52ZM452.03-41.54L452.03-41.54L452.03-41.54Q452.03-44.03 454.11-45.38L454.11-45.38L454.11-45.38Q456.19-46.72 459.20-46.72L459.20-46.72L459.20-46.72Q462.21-46.72 464.03-45.38L464.03-45.38L464.03-45.38Q465.86-44.03 465.86-41.54L465.86-41.54L465.86-41.54Q465.86-39.04 463.84-37.76L463.84-37.76L463.84-37.76Q461.82-36.48 458.82-36.48L458.82-36.48L458.82-36.48Q455.81-36.48 453.92-37.76L453.92-37.76L453.92-37.76Q452.03-39.04 452.03-41.54ZM492.86-10.82L492.86-10.82L492.86-10.82Q494.46-9.73 494.46-7.33L494.46-7.33L494.46-7.33Q494.46-4.93 493.25-3.39L493.25-3.39L493.25-3.39Q492.03-1.86 490.05-0.83L490.05-0.83L490.05-0.83Q485.95 1.28 481.54 1.28L481.54 1.28L481.54 1.28Q477.12 1.28 474.53 0.32L474.53 0.32L474.53 0.32Q471.94-0.64 470.21-2.43L470.21-2.43L470.21-2.43Q466.82-5.82 466.82-12.03L466.82-12.03L466.82-12.03Q466.82-21.70 472.06-27.58L472.06-27.58L472.06-27.58Q477.70-33.92 487.49-33.92L487.49-33.92L487.49-33.92Q493.57-33.92 496.58-31.36L496.58-31.36L496.58-31.36Q498.82-29.44 498.82-26.30L498.82-26.30L498.82-26.30Q498.82-15.04 479.36-15.04L479.36-15.04L479.36-15.04Q479.10-13.38 479.10-11.97L479.10-11.97L479.10-11.97Q479.10-9.02 480.42-7.90L480.42-7.90L480.42-7.90Q481.73-6.78 484.16-6.78L484.16-6.78L484.16-6.78Q486.59-6.78 489.18-7.90L489.18-7.90L489.18-7.90Q491.78-9.02 492.86-10.82ZM479.81-17.79L479.81-17.79L479.81-17.79Q484.35-17.79 486.98-20.61L486.98-20.61L486.98-20.61Q489.60-23.30 489.60-27.58L489.60-27.58L489.60-27.58Q489.60-29.06 489.06-29.86L489.06-29.86L489.06-29.86Q488.51-30.66 487.42-30.66L487.42-30.66L487.42-30.66Q486.34-30.66 485.41-30.24L485.41-30.24L485.41-30.24Q484.48-29.82 483.52-28.42L483.52-28.42L483.52-28.42Q481.15-25.22 479.81-17.79Z" fill="#f00" stroke="#0f0" stroke-width="1.8"></path></g></g><g><g transform="translate(0.005031704902648926, 104.76000022888184)"><path d="M6.53 0L-0.83 0L10.75-42.24L24.13-42.24L27.07-18.11L38.98-42.24L50.18-42.24L51.33-10.62L51.33-10.62Q51.58-4.35 54.66-2.43L54.66-2.43L54.66-2.43Q53.95-1.15 51.90 0.06L51.90 0.06L51.90 0.06Q49.86 1.28 47.14 1.28L47.14 1.28L47.14 1.28Q44.42 1.28 42.82 0.51L42.82 0.51L42.82 0.51Q41.22-0.26 40.32-1.54L40.32-1.54L40.32-1.54Q38.72-3.84 38.72-8.26L38.72-8.26L38.72-28.03L26.11 0L18.18 0L13.70-28.74L6.53 0ZM83.33-10.82L83.33-10.82L83.33-10.82Q84.93-9.73 84.93-7.33L84.93-7.33L84.93-7.33Q84.93-4.93 83.71-3.39L83.71-3.39L83.71-3.39Q82.50-1.86 80.51-0.83L80.51-0.83L80.51-0.83Q76.42 1.28 72 1.28L72 1.28L72 1.28Q67.58 1.28 64.99 0.32L64.99 0.32L64.99 0.32Q62.40-0.64 60.67-2.43L60.67-2.43L60.67-2.43Q57.28-5.82 57.28-12.03L57.28-12.03L57.28-12.03Q57.28-21.70 62.53-27.58L62.53-27.58L62.53-27.58Q68.16-33.92 77.95-33.92L77.95-33.92L77.95-33.92Q84.03-33.92 87.04-31.36L87.04-31.36L87.04-31.36Q89.28-29.44 89.28-26.30L89.28-26.30L89.28-26.30Q89.28-15.04 69.82-15.04L69.82-15.04L69.82-15.04Q69.57-13.38 69.57-11.97L69.57-11.97L69.57-11.97Q69.57-9.02 70.88-7.90L70.88-7.90L70.88-7.90Q72.19-6.78 74.62-6.78L74.62-6.78L74.62-6.78Q77.06-6.78 79.65-7.90L79.65-7.90L79.65-7.90Q82.24-9.02 83.33-10.82ZM70.27-17.79L70.27-17.79L70.27-17.79Q74.82-17.79 77.44-20.61L77.44-20.61L77.44-20.61Q80.06-23.30 80.06-27.58L80.06-27.58L80.06-27.58Q80.06-29.06 79.52-29.86L79.52-29.86L79.52-29.86Q78.98-30.66 77.89-30.66L77.89-30.66L77.89-30.66Q76.80-30.66 75.87-30.24L75.87-30.24L75.87-30.24Q74.94-29.82 73.98-28.42L73.98-28.42L73.98-28.42Q71.62-25.22 70.27-17.79ZM122.88-26.62L122.88-26.62L122.88-26.62Q122.88-23.94 120.64-22.27L120.64-22.27L120.64-22.27Q118.40-20.61 114.75-20.61L114.75-20.61L114.75-20.61Q113.22-20.61 112.32-21.06L112.32-21.06L112.32-21.06Q113.02-22.72 113.25-24.80L113.25-24.80L113.25-24.80Q113.47-26.88 113.47-27.46L113.47-27.46L113.47-27.46Q113.47-30.14 111.62-30.14L111.62-30.14L111.62-30.14Q110.34-30.14 108.90-28.54L108.90-28.54L108.90-28.54Q107.46-26.94 106.24-24.45L106.24-24.45L106.24-24.45Q103.55-18.69 103.55-12.86L103.55-12.86L103.55-12.86Q103.55-9.66 104.77-8.22L104.77-8.22L104.77-8.22Q105.98-6.78 108.67-6.78L108.67-6.78L108.67-6.78Q112.38-6.78 115.33-9.86L115.33-9.86L115.33-9.86Q116.16-10.82 116.61-11.90L116.61-11.90L116.61-11.90Q119.04-10.62 119.04-7.10L119.04-7.10L119.04-7.10Q119.04-3.52 115.07-1.15L115.07-1.15L115.07-1.15Q110.98 1.28 104.45 1.28L104.45 1.28L104.45 1.28Q91.46 1.28 91.46-12.48L91.46-12.48L91.46-12.48Q91.46-22.53 97.15-28.29L97.15-28.29L97.15-28.29Q102.66-33.92 112.77-33.92L112.77-33.92L112.77-33.92Q122.88-33.92 122.88-26.62ZM136.93 0.64L136.93 0.64L136.93 0.64Q133.89 0 132.32-0.29L132.32-0.29L132.32-0.29Q130.75-0.58 128.93-0.58L128.93-0.58L128.93-0.58Q127.10-0.58 125.31 0.06L125.31 0.06L125.31 0.06Q124.35-0.51 123.74-1.66L123.74-1.66L123.74-1.66Q123.14-2.82 123.14-4.61L123.14-4.61L123.14-4.61Q123.14-8.38 126.98-11.26L126.98-11.26L143.23-22.98L143.23-22.98Q138.69-24.26 134.56-24.26L134.56-24.26L134.56-24.26Q130.43-24.26 128.96-21.44L128.96-21.44L128.96-21.44Q126.78-24 126.78-28.03L126.78-28.03L126.78-28.03Q126.78-30.72 128.74-32.48L128.74-32.48L128.74-32.48Q130.69-34.24 134.78-34.24L134.78-34.24L134.78-34.24Q137.09-34.24 139.17-33.95L139.17-33.95L139.17-33.95Q141.25-33.66 143.10-33.41L143.10-33.41L146.56-32.90L146.56-32.90Q148.22-32.64 149.92-32.64L149.92-32.64L149.92-32.64Q151.62-32.64 152.90-33.34L152.90-33.34L152.90-33.34Q154.56-31.81 154.56-29.70L154.56-29.70L154.56-29.70Q154.56-26.37 150.46-22.91L150.46-22.91L134.27-10.82L134.27-10.82Q139.26-9.34 141.82-9.34L141.82-9.34L141.82-9.34Q147.20-9.34 149.50-11.90L149.50-11.90L149.50-11.90Q151.30-9.86 151.30-6.30L151.30-6.30L151.30-6.30Q151.30-2.75 148.99-0.74L148.99-0.74L148.99-0.74Q146.69 1.28 142.53 1.28L142.53 1.28L142.53 1.28Q139.97 1.28 136.93 0.64ZM182.78-10.82L182.78-10.82L182.78-10.82Q184.38-9.73 184.38-7.33L184.38-7.33L184.38-7.33Q184.38-4.93 183.17-3.39L183.17-3.39L183.17-3.39Q181.95-1.86 179.97-0.83L179.97-0.83L179.97-0.83Q175.87 1.28 171.46 1.28L171.46 1.28L171.46 1.28Q167.04 1.28 164.45 0.32L164.45 0.32L164.45 0.32Q161.86-0.64 160.13-2.43L160.13-2.43L160.13-2.43Q156.74-5.82 156.74-12.03L156.74-12.03L156.74-12.03Q156.74-21.70 161.98-27.58L161.98-27.58L161.98-27.58Q167.62-33.92 177.41-33.92L177.41-33.92L177.41-33.92Q183.49-33.92 186.50-31.36L186.50-31.36L186.50-31.36Q188.74-29.44 188.74-26.30L188.74-26.30L188.74-26.30Q188.74-15.04 169.28-15.04L169.28-15.04L169.28-15.04Q169.02-13.38 169.02-11.97L169.02-11.97L169.02-11.97Q169.02-9.02 170.34-7.90L170.34-7.90L170.34-7.90Q171.65-6.78 174.08-6.78L174.08-6.78L174.08-6.78Q176.51-6.78 179.10-7.90L179.10-7.90L179.10-7.90Q181.70-9.02 182.78-10.82ZM169.73-17.79L169.73-17.79L169.73-17.79Q174.27-17.79 176.90-20.61L176.90-20.61L176.90-20.61Q179.52-23.30 179.52-27.58L179.52-27.58L179.52-27.58Q179.52-29.06 178.98-29.86L178.98-29.86L178.98-29.86Q178.43-30.66 177.34-30.66L177.34-30.66L177.34-30.66Q176.26-30.66 175.33-30.24L175.33-30.24L175.33-30.24Q174.40-29.82 173.44-28.42L173.44-28.42L173.44-28.42Q171.07-25.22 169.73-17.79ZM233.92-4.38L233.92-4.38L233.92-4.38Q231.23-1.66 227.55-0.19L227.55-0.19L227.55-0.19Q223.87 1.28 220.22 1.28L220.22 1.28L220.22 1.28Q216.58 1.28 215.30 0.64L215.30 0.64L213.31 11.52L200.32 12.80L209.15-32.64L219.58-33.73L218.75-29.31L218.75-29.31Q221.44-33.86 227.01-33.86L227.01-33.86L227.01-33.86Q233.28-33.86 236.61-29.82L236.61-29.82L236.61-29.82Q239.55-26.18 239.55-20.61L239.55-20.61L239.55-20.61Q239.55-15.04 238.08-11.07L238.08-11.07L238.08-11.07Q236.61-7.10 233.92-4.38ZM219.46-22.34L216.06-3.58L216.06-3.58Q217.41-2.43 219.07-2.43L219.07-2.43L219.07-2.43Q220.74-2.43 221.70-3.07L221.70-3.07L221.70-3.07Q222.66-3.71 223.36-4.99L223.36-4.99L223.36-4.99Q225.28-8.45 226.82-18.94L226.82-18.94L226.82-18.94Q227.26-22.02 227.26-25.02L227.26-25.02L227.26-25.02Q227.26-28.03 226.59-28.99L226.59-28.99L226.59-28.99Q225.92-29.95 224.64-29.95L224.64-29.95L224.64-29.95Q220.74-29.95 219.46-22.34L219.46-22.34ZM258.75-3.52L258.75-3.52L258.75-3.52Q256.77 1.28 250.43 1.28L250.43 1.28L250.43 1.28Q247.17 1.28 245.12-0.96L245.12-0.96L245.12-0.96Q243.39-2.94 243.39-4.93L243.39-4.93L243.39-4.93Q243.39-10.11 245.76-20.22L245.76-20.22L248.13-32.64L261.12-33.92L257.22-13.70L257.22-13.70Q256.13-8.96 256.13-7.30L256.13-7.30L256.13-7.30Q256.13-3.65 258.75-3.52ZM249.28-41.54L249.28-41.54L249.28-41.54Q249.28-44.03 251.36-45.38L251.36-45.38L251.36-45.38Q253.44-46.72 256.45-46.72L256.45-46.72L256.45-46.72Q259.46-46.72 261.28-45.38L261.28-45.38L261.28-45.38Q263.10-44.03 263.10-41.54L263.10-41.54L263.10-41.54Q263.10-39.04 261.09-37.76L261.09-37.76L261.09-37.76Q259.07-36.48 256.06-36.48L256.06-36.48L256.06-36.48Q253.06-36.48 251.17-37.76L251.17-37.76L251.17-37.76Q249.28-39.04 249.28-41.54ZM280.70-30.34L280.70-30.34L280.70-30.34Q284.16-33.92 291.46-33.92L291.46-33.92L291.46-33.92Q295.49-33.92 297.70-31.78L297.70-31.78L297.70-31.78Q299.90-29.63 299.90-25.70L299.90-25.70L299.90-25.70Q299.90-21.76 297.70-18.98L297.70-18.98L297.70-18.98Q295.49-16.19 291.39-15.04L291.39-15.04L291.39-15.04Q291.71-13.76 292.16-12.42L292.16-12.42L293.06-9.86L293.06-9.86Q294.27-6.59 295.23-5.44L295.23-5.44L295.23-5.44Q296.19-4.29 297.47-3.90L297.47-3.90L297.47-3.90Q296.77-1.28 294.21 0.13L294.21 0.13L294.21 0.13Q292.16 1.28 289.34 1.28L289.34 1.28L289.34 1.28Q281.09 1.28 280-11.46L280-11.46L280-11.46Q279.81-13.25 279.81-15.04L279.81-15.04L279.81-15.04Q283.01-15.94 285.25-18.94L285.25-18.94L285.25-18.94Q287.49-21.95 287.49-25.47L287.49-25.47L287.49-25.47Q287.49-28.99 284.99-28.99L284.99-28.99L284.99-28.99Q283.20-28.99 281.79-27.01L281.79-27.01L281.79-27.01Q280.38-25.02 279.74-21.63L279.74-21.63L275.52 0L262.59 1.28L271.55-44.80L284.42-46.08L282.94-38.46L282.94-38.46Q281.98-33.09 280.70-30.34ZM305.63-1.92L305.63-1.92L305.63-1.92Q304.13-3.58 303.46-6.21L303.46-6.21L303.46-6.21Q302.78-8.83 302.78-13.12L302.78-13.12L302.78-13.12Q302.78-17.41 304.26-21.31L304.26-21.31L304.26-21.31Q305.73-25.22 308.42-28.03L308.42-28.03L308.42-28.03Q313.92-33.92 323.01-33.92L323.01-33.92L323.01-33.92Q326.27-33.92 328.64-32.83L328.64-32.83L339.58-33.92L334.85-8.96L334.85-8.96Q334.66-8.19 334.66-6.78L334.66-6.78L334.66-6.78Q334.66-5.38 335.52-4.48L335.52-4.48L335.52-4.48Q336.38-3.58 337.66-3.46L337.66-3.46L337.66-3.46Q337.02-1.28 334.69 0L334.69 0L334.69 0Q332.35 1.28 329.73 1.28L329.73 1.28L329.73 1.28Q327.10 1.28 325.34 0.29L325.34 0.29L325.34 0.29Q323.58-0.70 323.07-2.37L323.07-2.37L323.07-2.37Q322.05-0.77 319.87 0.26L319.87 0.26L319.87 0.26Q317.70 1.28 314.78 1.28L314.78 1.28L314.78 1.28Q311.87 1.28 309.50 0.51L309.50 0.51L309.50 0.51Q307.14-0.26 305.63-1.92ZM319.14-27.90L319.14-27.90L319.14-27.90Q318.40-26.75 317.76-24.80L317.76-24.80L317.76-24.80Q317.12-22.85 316.06-17.63L316.06-17.63L316.06-17.63Q315.01-12.42 315.01-8.70L315.01-8.70L315.01-8.70Q315.01-4.99 315.58-3.90L315.58-3.90L315.58-3.90Q316.16-2.82 317.18-2.82L317.18-2.82L317.18-2.82Q319.23-2.82 320.74-4.77L320.74-4.77L320.74-4.77Q322.24-6.72 322.82-10.18L322.82-10.18L326.21-28.93L326.21-28.93Q324.86-30.08 323.30-30.08L323.30-30.08L323.30-30.08Q321.73-30.08 320.80-29.57L320.80-29.57L320.80-29.57Q319.87-29.06 319.14-27.90ZM363.07-17.98L363.07-17.98L363.07-17.98Q365.38-22.08 365.38-26.24L365.38-26.24L365.38-26.24Q365.38-28.99 363.39-28.99L363.39-28.99L363.39-28.99Q361.86-28.99 360.26-26.37L360.26-26.37L360.26-26.37Q358.59-23.74 358.08-20.35L358.08-20.35L354.75 0L341.50 1.28L348.03-32.64L358.59-33.92L357.44-27.46L357.44-27.46Q360.58-33.92 367.62-33.92L367.62-33.92L367.62-33.92Q371.33-33.92 373.34-32L373.34-32L373.34-32Q375.36-30.08 375.36-26.14L375.36-26.14L375.36-26.14Q375.36-22.21 372.77-19.71L372.77-19.71L372.77-19.71Q370.18-17.22 365.76-17.22L365.76-17.22L365.76-17.22Q363.84-17.22 363.07-17.98ZM395.52-22.46L395.52-22.46L395.52-22.46Q396.42-24.83 396.42-26.88L396.42-26.88L396.42-26.88Q396.42-30.66 393.34-30.66L393.34-30.66L393.34-30.66Q391.74-30.66 390.43-29.22L390.43-29.22L390.43-29.22Q389.12-27.78 389.12-25.98L389.12-25.98L389.12-25.98Q389.12-24.70 390.14-23.68L390.14-23.68L390.14-23.68Q391.62-22.27 395.39-19.97L395.39-19.97L395.39-19.97Q399.17-17.66 400.61-15.78L400.61-15.78L400.61-15.78Q402.05-13.89 402.05-11.30L402.05-11.30L402.05-11.30Q402.05-8.70 400.80-6.34L400.80-6.34L400.80-6.34Q399.55-3.97 397.31-2.30L397.31-2.30L397.31-2.30Q392.51 1.28 384.83 1.28L384.83 1.28L384.83 1.28Q380.67 1.28 377.47-0.90L377.47-0.90L377.47-0.90Q374.27-3.01 374.27-5.50L374.27-5.50L374.27-5.50Q374.27-8 376.10-9.47L376.10-9.47L376.10-9.47Q377.92-10.94 380.61-10.94L380.61-10.94L380.61-10.94Q383.30-10.94 384.96-9.92L384.96-9.92L384.96-9.92Q384.13-7.81 384.13-6.40L384.13-6.40L384.13-6.40Q384.13-2.18 387.71-2.18L387.71-2.18L387.71-2.18Q389.25-2.18 390.27-3.14L390.27-3.14L390.27-3.14Q391.30-4.10 391.30-5.76L391.30-5.76L391.30-5.76Q391.30-9.02 385.79-12.48L385.79-12.48L385.79-12.48Q381.31-15.42 380.29-16.58L380.29-16.58L380.29-16.58Q378.56-18.62 378.56-21.18L378.56-21.18L378.56-21.18Q378.56-23.74 379.78-26.18L379.78-26.18L379.78-26.18Q380.99-28.61 383.23-30.34L383.23-30.34L383.23-30.34Q387.90-33.92 396.03-33.92L396.03-33.92L396.03-33.92Q400.19-33.92 402.66-32.26L402.66-32.26L402.66-32.26Q405.12-30.59 405.12-27.78L405.12-27.78L405.12-27.78Q405.12-24.96 403.42-23.36L403.42-23.36L403.42-23.36Q401.73-21.76 398.66-21.76L398.66-21.76L398.66-21.76Q396.54-21.76 395.52-22.46ZM424-30.34L424-30.34L424-30.34Q427.46-33.92 434.75-33.92L434.75-33.92L434.75-33.92Q438.78-33.92 440.99-31.78L440.99-31.78L440.99-31.78Q443.20-29.63 443.20-25.70L443.20-25.70L443.20-25.70Q443.20-21.76 440.99-18.98L440.99-18.98L440.99-18.98Q438.78-16.19 434.69-15.04L434.69-15.04L434.69-15.04Q435.01-13.76 435.46-12.42L435.46-12.42L436.35-9.86L436.35-9.86Q437.57-6.59 438.53-5.44L438.53-5.44L438.53-5.44Q439.49-4.29 440.77-3.90L440.77-3.90L440.77-3.90Q440.06-1.28 437.50 0.13L437.50 0.13L437.50 0.13Q435.46 1.28 432.64 1.28L432.64 1.28L432.64 1.28Q424.38 1.28 423.30-11.46L423.30-11.46L423.30-11.46Q423.10-13.25 423.10-15.04L423.10-15.04L423.10-15.04Q426.30-15.94 428.54-18.94L428.54-18.94L428.54-18.94Q430.78-21.95 430.78-25.47L430.78-25.47L430.78-25.47Q430.78-28.99 428.29-28.99L428.29-28.99L428.29-28.99Q426.50-28.99 425.09-27.01L425.09-27.01L425.09-27.01Q423.68-25.02 423.04-21.63L423.04-21.63L418.82 0L405.89 1.28L414.85-44.80L427.71-46.08L426.24-38.46L426.24-38.46Q425.28-33.09 424-30.34ZM461.50-3.52L461.50-3.52L461.50-3.52Q459.52 1.28 453.18 1.28L453.18 1.28L453.18 1.28Q449.92 1.28 447.87-0.96L447.87-0.96L447.87-0.96Q446.14-2.94 446.14-4.93L446.14-4.93L446.14-4.93Q446.14-10.11 448.51-20.22L448.51-20.22L450.88-32.64L463.87-33.92L459.97-13.70L459.97-13.70Q458.88-8.96 458.88-7.30L458.88-7.30L458.88-7.30Q458.88-3.65 461.50-3.52ZM452.03-41.54L452.03-41.54L452.03-41.54Q452.03-44.03 454.11-45.38L454.11-45.38L454.11-45.38Q456.19-46.72 459.20-46.72L459.20-46.72L459.20-46.72Q462.21-46.72 464.03-45.38L464.03-45.38L464.03-45.38Q465.86-44.03 465.86-41.54L465.86-41.54L465.86-41.54Q465.86-39.04 463.84-37.76L463.84-37.76L463.84-37.76Q461.82-36.48 458.82-36.48L458.82-36.48L458.82-36.48Q455.81-36.48 453.92-37.76L453.92-37.76L453.92-37.76Q452.03-39.04 452.03-41.54ZM492.86-10.82L492.86-10.82L492.86-10.82Q494.46-9.73 494.46-7.33L494.46-7.33L494.46-7.33Q494.46-4.93 493.25-3.39L493.25-3.39L493.25-3.39Q492.03-1.86 490.05-0.83L490.05-0.83L490.05-0.83Q485.95 1.28 481.54 1.28L481.54 1.28L481.54 1.28Q477.12 1.28 474.53 0.32L474.53 0.32L474.53 0.32Q471.94-0.64 470.21-2.43L470.21-2.43L470.21-2.43Q466.82-5.82 466.82-12.03L466.82-12.03L466.82-12.03Q466.82-21.70 472.06-27.58L472.06-27.58L472.06-27.58Q477.70-33.92 487.49-33.92L487.49-33.92L487.49-33.92Q493.57-33.92 496.58-31.36L496.58-31.36L496.58-31.36Q498.82-29.44 498.82-26.30L498.82-26.30L498.82-26.30Q498.82-15.04 479.36-15.04L479.36-15.04L479.36-15.04Q479.10-13.38 479.10-11.97L479.10-11.97L479.10-11.97Q479.10-9.02 480.42-7.90L480.42-7.90L480.42-7.90Q481.73-6.78 484.16-6.78L484.16-6.78L484.16-6.78Q486.59-6.78 489.18-7.90L489.18-7.90L489.18-7.90Q491.78-9.02 492.86-10.82ZM479.81-17.79L479.81-17.79L479.81-17.79Q484.35-17.79 486.98-20.61L486.98-20.61L486.98-20.61Q489.60-23.30 489.60-27.58L489.60-27.58L489.60-27.58Q489.60-29.06 489.06-29.86L489.06-29.86L489.06-29.86Q488.51-30.66 487.42-30.66L487.42-30.66L487.42-30.66Q486.34-30.66 485.41-30.24L485.41-30.24L485.41-30.24Q484.48-29.82 483.52-28.42L483.52-28.42L483.52-28.42Q481.15-25.22 479.81-17.79Z" fill="none" stroke="#020621" stroke-width="2.1"></path></g></g></g><style>text {
  font-size: 64px;
  font-family: Arial Black;
  dominant-baseline: central;
  text-anchor: middle;
}</style></svg>